<?xml version="1.0" encoding="UTF-8" standalone="no"?>
<!-- Created with Inkscape (http://www.inkscape.org/) -->

<svg
   xmlns:dc="http://purl.org/dc/elements/1.1/"
   xmlns:cc="http://creativecommons.org/ns#"
   xmlns:rdf="http://www.w3.org/1999/02/22-rdf-syntax-ns#"
   xmlns:svg="http://www.w3.org/2000/svg"
   xmlns="http://www.w3.org/2000/svg"
   xmlns:sodipodi="http://sodipodi.sourceforge.net/DTD/sodipodi-0.dtd"
   xmlns:inkscape="http://www.inkscape.org/namespaces/inkscape"
   width="213.83359"
   height="199.98729"
   id="svg2"
   version="1.1"
   inkscape:version="0.48.3.1 r9886"
   sodipodi:docname="kosh.svg">
  <defs
     id="defs4" />
  <sodipodi:namedview
     id="base"
     pagecolor="#ffffff"
     bordercolor="#666666"
     borderopacity="1.0"
     inkscape:pageopacity="0.0"
     inkscape:pageshadow="2"
     inkscape:zoom="2.8284271"
     inkscape:cx="218.57059"
     inkscape:cy="101.04339"
     inkscape:document-units="px"
     inkscape:current-layer="layer1"
     showgrid="false"
     showguides="true"
     inkscape:guide-bbox="true"
     inkscape:window-width="1920"
     inkscape:window-height="1036"
     inkscape:window-x="0"
     inkscape:window-y="22"
     inkscape:window-maximized="1"
     fit-margin-top="0"
     fit-margin-left="0"
     fit-margin-right="0"
     fit-margin-bottom="0" />
  <metadata
     id="metadata7">
    <rdf:RDF>
      <cc:Work
         rdf:about="">
        <dc:format>image/svg+xml</dc:format>
        <dc:type
           rdf:resource="http://purl.org/dc/dcmitype/StillImage" />
        <dc:title></dc:title>
      </cc:Work>
    </rdf:RDF>
  </metadata>
  <g
     inkscape:label="Ebene 1"
     inkscape:groupmode="layer"
     id="layer1"
     transform="translate(-239.36011,-293.0517)">
    <path
       style="fill:none;stroke:#000000;stroke-width:1px;stroke-linecap:butt;stroke-linejoin:round;stroke-opacity:1"
       d="m 278.29703,322.02189 c 12.71215,17.55124 20.24038,23.52676 32.57742,39.14341 5.66442,7.17022 12.18512,17.79251 18.43528,29.04189 6.25573,11.25941 8.83463,24.2417 14.39467,35.86041 2.7494,5.74536 4.73487,12.2715 9.34391,16.66752 2.04315,1.94872 4.82822,3.13937 7.57615,3.78807 5.73493,1.35383 12.25438,2.30437 17.67767,0 14.09108,-2.57524 21.34477,-51.3429 25.50635,-66.67007 3.08476,-11.61588 5.83435,-23.40063 7.07107,-35.35533 0.98752,-9.54588 4.45836,-20.16323 0.25254,-28.78935 -4.60438,-9.44356 -14.66193,-17.32771 -25.00128,-19.1929 -25.52248,-4.60417 -49.42149,-3.76265 -71.46829,2.02031 -16.47422,4.80238 -39.59831,14.37583 -36.36549,23.48604 z"
       id="path3782"
       inkscape:connector-curvature="0"
       sodipodi:nodetypes="csssssccssscc" />
    <path
       style="fill:none;stroke:#000000;stroke-width:1px;stroke-linecap:butt;stroke-linejoin:miter;stroke-opacity:1"
       d="m 278.13647,321.49168 c 0,0 9.44573,22.27085 12.78746,33.86525 2.21875,8.44918 10.54097,26.94048 10.35407,27.52665 -5.18148,0.11412 -9.46386,0.43696 -13.13199,3.03046 -4.48094,3.16819 -7.42831,8.58614 -8.83883,13.8896 -1.38625,5.2122 -0.64495,10.95461 0.75761,16.16244 3.75002,13.92412 9.91823,26.82413 19.95052,38.3858 9.8309,11.78608 27.72365,21.72413 43.18402,24.24366 8.05291,0.95408 16.8082,0.91238 24.77399,-0.6061 7.42926,-1.4162 20.85762,-2.44355 31.08744,-12.22284 20.05759,-23.55365 21.37138,-39.23781 23.8396,-53.74012 1.29121,-26.31928 -4.83611,-27.8878 -20.00102,-28.03172"
       id="path3784"
       inkscape:connector-curvature="0"
       sodipodi:nodetypes="cccsssccsccc" />
    <path
       style="fill:none;stroke:#000000;stroke-width:1px;stroke-linecap:butt;stroke-linejoin:miter;stroke-opacity:1"
       d="m 330.42186,392.25813 c 0,0 2.91295,-9.19895 14.50191,-15.55276 9.58084,-5.25284 30.45915,-7.60558 43.34464,0.046 11.12588,6.60666 12.53894,16.37471 12.53894,16.37471"
       id="path3786"
       inkscape:connector-curvature="0"
       sodipodi:nodetypes="cssc" />
    <path
       sodipodi:type="arc"
       style="fill:none;stroke:#000000;stroke-width:1px;stroke-linecap:butt;stroke-linejoin:miter;stroke-opacity:1"
       id="path3788"
       sodipodi:cx="367.36606"
       sodipodi:cy="403.52289"
       sodipodi:rx="12.276786"
       sodipodi:ry="12.142858"
       d="m 379.64284,403.52289 c 0,6.70631 -5.4965,12.14286 -12.27678,12.14286 -6.78028,0 -12.27679,-5.43655 -12.27679,-12.14286 0,-6.70632 5.49651,-12.14286 12.27679,-12.14286 6.78028,0 12.27678,5.43654 12.27678,12.14286 z"
       transform="matrix(1,0,0.15722274,1,-63.442971,0)" />
    <path
       style="fill:none;stroke:#000000;stroke-width:1px;stroke-linecap:butt;stroke-linejoin:miter;stroke-opacity:1"
       d="m 301.32697,382.982 c 0,0 5.98845,11.36786 9.03017,17.05875 7.45363,13.94531 12.46923,30.09801 22.5,42.32143 4.57689,5.57737 10.28904,10.96038 17.14286,13.21429 10.63282,3.49665 22.86283,2.54292 33.57143,-0.71429 5.53599,-1.68387 7.70816,-3.19761 11.76777,-11.60893 5.78125,-11.9785 8.40071,-25.12626 9.86169,-38.34643 0.86553,-7.83198 -2.09507,-21.00817 -2.09507,-21.00817"
       id="path3790"
       inkscape:connector-curvature="0"
       sodipodi:nodetypes="cssssssc" />
    <path
       style="fill:none;stroke:#000000;stroke-width:1px;stroke-linecap:butt;stroke-linejoin:miter;stroke-opacity:1"
       d="m 281.16812,328.80073 c 0,0 -21.03025,-13.23563 -28.66094,-10.06023 -6.82864,2.84164 -10.96274,11.26989 -12.14286,18.57143 -3.04544,18.84249 8.24876,32.69054 15.34997,50.40739 7.88976,19.68421 17.07044,38.39446 28.23941,56.4214 6.93957,11.2006 15.02089,23.15985 24.97487,31.79289 8.44623,7.32538 19.04166,12.78308 30,15 14.49887,2.93319 30.21798,1.71665 44.28572,-2.85714 13.88219,-4.51346 20.02468,-9.10392 25.2997,-15.71788 21.39375,-25.15565 32.56128,-71.60515 40.41458,-103.92498 2.04318,-8.63603 5.0131,-17.73835 3.21429,-26.42857 -1.48162,-7.15783 -4.87141,-15.05696 -11.07143,-18.92857 -9.04495,-3.50481 -18.81128,-0.6568 -27.85714,2.14285"
       id="path3792"
       inkscape:connector-curvature="0"
       sodipodi:nodetypes="csssssssccscc" />
    <path
       style="opacity:0.08301888;fill:#ffffff;fill-opacity:1;stroke-width:8;stroke-linejoin:round;stroke-miterlimit:4;stroke-dasharray:none"
       d="m 348.15237,491.50556 c -17.04527,-1.48031 -31.15489,-8.17038 -43.20175,-20.48411 -6.14296,-6.27904 -11.12402,-12.81143 -18.23115,-23.90915 -10.69366,-16.69803 -18.54321,-31.94482 -28.72174,-55.78844 -2.57331,-6.02808 -5.49009,-12.57669 -6.48172,-14.55246 -7.82217,-15.58518 -11.02064,-25.17862 -11.02064,-33.05512 0,-10.45122 5.07165,-20.91704 11.58015,-23.89674 1.67367,-0.76623 2.27312,-0.86003 4.45756,-0.69754 3.04664,0.22663 7.76758,1.74928 12.88319,4.15522 5.24338,2.46604 11.29016,5.96936 11.49508,6.65989 0.0939,0.31656 1.47554,3.91665 3.07023,8.00019 1.59469,4.08354 4.29314,11.64074 5.99656,16.79378 1.70342,5.15305 4.71051,13.39009 6.68243,18.30455 1.97193,4.91445 3.58532,8.98778 3.58532,9.05184 0,0.0641 -1.33748,0.21927 -2.97218,0.34492 -5.65155,0.43441 -9.0351,1.97179 -12.5062,5.68241 -2.61246,2.79272 -5.05218,7.50824 -6.1419,11.87112 -1.10006,4.40428 -0.78358,10.14168 0.90852,16.47052 4.10683,15.36042 11.42602,29.03348 21.27523,39.74447 10.26969,11.16827 26.3154,20.05911 41.15583,22.80423 4.19214,0.77544 13.41952,1.05846 18.66112,0.57236 5.44789,-0.50523 15.83072,-2.26012 20.16685,-3.40857 6.26249,-1.65867 11.98757,-4.40786 16.44188,-7.89541 2.50116,-1.95832 6.99974,-7.46765 11.1668,-13.6758 8.00699,-11.92892 11.34945,-20.6011 14.2073,-36.86157 1.0533,-5.99304 1.09284,-6.56855 0.92815,-13.50759 -0.13784,-5.80722 -0.31689,-7.78838 -0.9008,-9.96728 -2.06589,-7.70896 -5.59014,-10.18515 -15.35231,-10.78675 -1.89593,-0.11684 -3.44715,-0.3407 -3.44715,-0.49747 0,-0.15677 0.87991,-3.83178 1.95536,-8.16671 1.07544,-4.33492 2.49732,-10.58636 3.15972,-13.89208 1.32997,-6.63724 4.78887,-30.84681 4.78615,-33.49918 -0.001,-0.92366 0.0571,-1.67938 0.12907,-1.67938 0.0719,0 1.7027,-0.46566 3.62392,-1.0348 6.24384,-1.84966 9.13426,-2.31848 14.2765,-2.3156 6.71723,0.004 8.53958,0.57825 11.67866,3.68169 6.33913,6.26716 9.64658,17.37738 8.11093,27.24587 -0.80051,5.14433 -7.53214,32.63899 -11.33439,46.2942 -9.36616,33.63716 -18.94341,55.47736 -31.00941,70.71465 -6.72165,8.48829 -12.98478,12.63103 -25.1755,16.65229 -12.39241,4.08779 -24.03514,5.55671 -35.88567,4.52755 l 0,0 z"
       id="path3815"
       inkscape:connector-curvature="0" />
    <path
       style="opacity:0.08301888;fill:#ffffff;fill-opacity:1;stroke-width:8;stroke-linejoin:round;stroke-miterlimit:4;stroke-dasharray:none"
       d="m 346.20783,478.25951 c -3.05374,-0.26212 -9.04622,-1.65546 -13.08148,-3.04162 -10.70682,-3.67796 -21.77257,-10.40308 -28.98475,-17.61525 -10.13658,-10.13658 -17.79397,-23.31105 -22.40522,-38.548 -2.6304,-8.69161 -3.05905,-14.66254 -1.42472,-19.84597 2.48199,-7.87186 6.79639,-12.95118 12.42603,-14.6291 1.17223,-0.34939 3.34167,-0.62049 5.14069,-0.64241 l 3.11258,-0.0379 4.9949,9.36916 c 2.7472,5.15304 7.28108,14.30124 10.0753,20.32932 9.14661,19.7324 12.53425,25.41515 19.6011,32.88079 3.36199,3.55171 7.72761,6.94845 10.76474,8.37567 8.68406,4.08084 22.20495,4.62142 34.57906,1.38249 8.66853,-2.26899 10.38745,-3.71125 14.67846,-12.31595 3.36101,-6.73979 6.13359,-15.18669 7.98026,-24.31259 1.03972,-5.13812 2.29362,-15.0891 2.29036,-18.17636 -0.003,-3.1459 -0.82502,-11.06414 -1.41186,-13.60525 -0.18447,-0.79882 -0.3393,-1.83456 -0.34405,-2.30163 l -0.009,-0.84922 3.65229,0.22346 c 11.27114,0.68963 14.37894,5.22294 14.37894,20.97434 0,5.26919 -0.1532,7.01957 -1.07124,12.23966 -2.82363,16.05559 -6.90892,25.97378 -15.87409,38.53883 -6.10823,8.56095 -9.44774,11.65381 -16.11191,14.9219 -4.54436,2.22854 -10.2777,3.83968 -18.95601,5.32689 -6.78781,1.16323 -8.31929,1.30585 -14.98512,1.39549 -4.08354,0.0549 -8.14057,0.0384 -9.01561,-0.0367 l 0,0 z"
       id="path3817"
       inkscape:connector-curvature="0" />
    <path
       style="opacity:0.08301888;fill:#ffffff;fill-opacity:1;stroke-width:8;stroke-linejoin:round;stroke-miterlimit:4;stroke-dasharray:none"
       d="m 356.2841,456.37645 c -7.88342,-1.44956 -12.17551,-3.70013 -18.14679,-9.51533 -7.62314,-7.42388 -11.67836,-14.03692 -20.75853,-33.85187 -2.25761,-4.92661 -6.62488,-13.73044 -9.70505,-19.56407 -6.9177,-13.10167 -11.81497,-24.95055 -17.16998,-41.54252 -1.76524,-5.46945 -3.1768,-9.32116 -6.58353,-17.96449 -1.17351,-2.97734 -2.07442,-5.47257 -2.00203,-5.54497 0.0724,-0.0724 1.49471,1.56812 3.16072,3.64558 1.666,2.07746 5.95899,7.09984 9.53998,11.16085 16.17549,18.34379 20.86346,24.62385 29.85378,39.9925 6.29768,10.76567 7.37254,13.15254 12.89626,28.63783 2.98866,8.37845 8.47257,21.21448 11.07445,25.92163 2.56325,4.63727 5.66033,7.30173 10.37122,8.92251 5.60779,1.92937 15.10676,2.27218 19.37498,0.69924 3.21053,-1.18316 3.83004,-1.58242 5.80018,-3.73806 6.01573,-6.58217 10.72309,-19.98907 17.04919,-48.55739 2.13824,-9.65615 1.91156,-9.54401 2.97271,-1.47062 0.95036,7.23048 0.4885,14.44482 -1.60798,25.11698 -2.58364,13.15205 -7.78566,26.51902 -12.23293,31.43342 -2.60171,2.87498 -6.99095,4.57753 -15.62539,6.06096 -4.71826,0.81062 -14.26244,0.8931 -18.26126,0.15782 l 0,0 z"
       id="path3819"
       inkscape:connector-curvature="0" />
    <path
       style="opacity:0.08301888;fill:#ffffff;fill-opacity:1;stroke-width:8;stroke-linejoin:round;stroke-miterlimit:4;stroke-dasharray:none"
       d="m 367.11028,446.99658 c -9.94155,-1.36097 -14.04943,-3.76299 -17.63752,-10.31329 -2.40798,-4.39592 -8.01824,-17.46342 -10.44258,-24.323 -3.54631,-10.03416 -4.37487,-12.24214 -6.14781,-16.3829 l -1.64063,-3.83174 0.89825,-1.82511 c 1.22224,-2.48342 3.81983,-5.86522 6.04097,-7.86475 7.50032,-6.75196 16.96401,-9.84847 29.7704,-9.74082 9.64388,0.0811 15.95271,1.85489 22.24747,6.25525 4.03409,2.82002 7.99691,7.97635 9.29503,12.09445 l 0.59765,1.89597 -1.52323,6.78301 c -5.82694,25.9476 -11.29817,40.06504 -17.25868,44.53266 -2.8278,2.11954 -9.39591,3.37784 -14.19932,2.72027 z m 6.42434,-31.45714 c 8.12037,-3.03822 9.25032,-13.7993 2.15372,-20.51096 -4.04461,-3.82523 -9.82202,-5.23186 -14.45449,-3.51925 -5.42253,2.00468 -8.10684,7.90914 -6.34733,13.96166 2.26866,7.80393 11.45061,12.76147 18.6481,10.06855 z"
       id="path3821"
       inkscape:connector-curvature="0" />
    <path
       style="opacity:0.08301888;fill:#ffffff;fill-opacity:1;stroke-width:8;stroke-linejoin:round;stroke-miterlimit:4;stroke-dasharray:none"
       d="m 329.84596,389.69016 c -0.29046,-0.46264 -1.52372,-2.59126 -2.74057,-4.73026 -9.03823,-15.88762 -14.8854,-23.98237 -28.22014,-39.06765 -13.1048,-14.82514 -19.762,-23.18058 -20.07913,-25.20126 -0.69088,-4.40213 6.66062,-10.22813 19.87431,-15.7502 12.33516,-5.15494 23.63378,-8.02874 38.68856,-9.84042 7.15201,-0.86066 26.20955,-0.86239 33.76435,-0.003 12.53316,1.42561 17.70412,2.5061 22.34324,4.66869 5.83831,2.7216 11.37153,7.4118 14.76369,12.51434 4.2563,6.40239 4.94129,11.34535 3.22027,23.23765 -0.47397,3.27516 -1.197,8.50043 -1.60673,11.6117 -1.1184,8.49256 -2.55629,15.66798 -5.88046,29.34493 -1.65417,6.8059 -3.08657,12.60991 -3.18311,12.8978 -0.11193,0.33376 -0.41276,-0.006 -0.83021,-0.93882 -3.42242,-7.64424 -10.99694,-13.45815 -20.76577,-15.93904 -3.59862,-0.91391 -4.26574,-0.96923 -11.59645,-0.96169 -8.11158,0.008 -11.14449,0.3702 -16.44023,1.96144 -8.3065,2.4959 -16.10769,8.48665 -19.76833,15.18065 l -1.01516,1.85638 -0.52813,-0.84118 0,0 z"
       id="path3823"
       inkscape:connector-curvature="0" />
    <path
       style="opacity:0.08301888;fill:#ffffff;fill-opacity:1;stroke-width:8;stroke-linejoin:round;stroke-miterlimit:4;stroke-dasharray:none"
       d="m 348.15237,491.50556 c -14.02352,-1.21788 -26.12173,-6.02499 -36.94633,-14.68026 -3.03438,-2.42628 -8.85442,-8.27795 -12.00384,-12.0691 -4.72783,-5.69116 -12.83937,-17.75396 -18.82889,-28.00073 -8.20387,-14.03502 -13.44353,-24.66485 -22.56846,-45.78516 -2.85644,-6.61145 -6.94611,-15.6801 -9.08815,-20.15255 -6.43636,-13.43873 -8.60023,-21.29754 -8.0799,-29.34493 0.64178,-9.92594 5.36099,-18.87081 11.41933,-21.64441 1.69456,-0.77579 2.2872,-0.86931 4.47695,-0.70642 1.40351,0.1044 3.99728,0.67792 5.84316,1.29199 5.96036,1.98286 17.19702,7.73883 18.25263,9.34989 0.95793,1.46198 6.25816,15.61623 9.34927,24.9672 1.70342,5.15305 4.71051,13.39009 6.68243,18.30455 1.97193,4.91445 3.58532,8.98778 3.58532,9.05184 0,0.0641 -1.33748,0.21927 -2.97218,0.34492 -5.65155,0.43441 -9.0351,1.97179 -12.5062,5.68241 -2.61246,2.79272 -5.05218,7.50824 -6.1419,11.87112 -1.10006,4.40428 -0.78358,10.14168 0.90852,16.47052 4.10683,15.36042 11.42602,29.03348 21.27523,39.74447 10.26969,11.16827 26.3154,20.05911 41.15583,22.80423 4.19214,0.77544 13.41952,1.05846 18.66112,0.57236 5.44789,-0.50523 15.83072,-2.26012 20.16685,-3.40857 6.26249,-1.65867 11.98757,-4.40786 16.44188,-7.89541 2.50116,-1.95832 6.99974,-7.46765 11.1668,-13.6758 8.00699,-11.92892 11.34945,-20.6011 14.2073,-36.86157 1.0533,-5.99304 1.09284,-6.56855 0.92815,-13.50759 -0.13784,-5.80722 -0.31689,-7.78838 -0.9008,-9.96728 -2.06589,-7.70896 -5.59014,-10.18515 -15.35231,-10.78675 -1.89593,-0.11684 -3.44715,-0.3407 -3.44715,-0.49747 0,-0.15677 0.87991,-3.83178 1.95536,-8.16671 1.07544,-4.33492 2.49732,-10.58636 3.15972,-13.89208 1.32997,-6.63724 4.78887,-30.84681 4.78615,-33.49918 -0.001,-0.92366 0.0571,-1.67938 0.12907,-1.67938 0.0719,0 1.7027,-0.46566 3.62392,-1.0348 6.24384,-1.84966 9.13426,-2.31848 14.2765,-2.3156 6.71723,0.004 8.53958,0.57825 11.67866,3.68169 2.90366,2.8707 4.99408,6.35615 6.52257,10.87544 2.30197,6.8062 2.50143,12.61284 0.72021,20.96663 -1.38174,6.48026 -8.02028,32.92069 -10.47469,41.7193 -9.39599,33.68291 -18.91356,55.37694 -31.02209,70.71067 -6.35463,8.04724 -12.5366,12.29302 -23.40938,16.07759 -12.67081,4.41042 -25.47489,6.1406 -37.63066,5.08493 l 0,0 z"
       id="path3825"
       inkscape:connector-curvature="0" />
  </g>
</svg>
